<?xml version="1.0" standalone="no"?>
<!DOCTYPE svg PUBLIC "-//W3C//DTD SVG 20010904//EN"
 "http://www.w3.org/TR/2001/REC-SVG-20010904/DTD/svg10.dtd">
<svg version="1.0" xmlns="http://www.w3.org/2000/svg"
 width="55.000000pt" height="60.000000pt" viewBox="0 0 318.000000 159.000000"
 preserveAspectRatio="xMidYMid meet">
<metadata>
Created by potrace 1.16, written by Peter Selinger 2001-2019
</metadata>
<g transform="translate(0.000000,159.000000) scale(0.100000,-0.100000)"
fill="#FFFFFF" stroke="none">
<path d="M2595 1283 c-199 -28 -360 -135 -430 -285 -97 -211 -56 -403 109
-510 71 -46 132 -65 247 -78 94 -11 262 1 339 23 l45 13 12 64 c6 36 8 69 3
74 -5 5 -32 3 -62 -5 -29 -7 -96 -13 -148 -13 -115 0 -182 24 -235 87 -47 55
-58 95 -53 191 9 162 102 278 246 306 95 18 169 -22 181 -97 6 -37 8 -38 50
-41 24 -2 47 0 51 5 13 12 55 231 47 239 -24 25 -290 42 -402 27z"/>
<path d="M350 1261 c-19 -36 -12 -77 15 -89 37 -17 39 -49 11 -173 -14 -63
-39 -176 -55 -251 -36 -165 -58 -212 -105 -229 -34 -12 -46 -31 -46 -76 0 -22
1 -22 216 -25 119 -2 220 -1 225 3 5 3 12 25 15 50 6 41 4 46 -19 56 -13 6
-26 20 -29 30 -2 10 7 69 20 131 l25 113 17 -28 c9 -15 42 -71 72 -123 73
-123 116 -172 180 -204 49 -24 61 -26 199 -26 l147 0 7 41 c4 22 5 41 3 42 -1
2 -23 9 -48 17 -42 14 -55 28 -178 193 -73 99 -132 180 -130 182 199 170 325
266 361 276 23 6 49 14 57 18 15 8 32 69 24 83 -3 5 -92 8 -198 8 l-194 0 -10
-40 c-9 -36 -8 -43 10 -60 11 -10 19 -23 17 -28 -4 -10 -303 -262 -311 -262
-3 0 8 57 23 128 28 126 34 137 83 167 10 6 20 28 23 53 l6 42 -211 0 c-199 0
-212 -1 -222 -19z"/>
<path d="M1400 1254 c-17 -43 -12 -70 15 -82 13 -6 27 -22 30 -35 4 -14 -25
-165 -68 -363 -41 -187 -71 -343 -67 -349 5 -6 75 -9 183 -7 l175 3 10 42 c11
40 10 43 -18 65 -35 28 -37 48 -14 151 l16 71 148 0 148 0 16 71 c9 38 14 74
11 80 -4 5 -69 9 -146 9 l-140 0 6 33 c4 18 14 68 24 112 l17 80 108 3 c129 3
153 -6 158 -65 l3 -38 52 -3 c42 -2 52 0 57 15 10 34 46 203 46 218 0 13 -48
15 -380 15 l-380 0 -10 -26z"/>
</g>
</svg>
