<svg width="16" height="14" viewBox="0 0 16 14" fill="none" xmlns="http://www.w3.org/2000/svg">
<path d="M11.4853 0.435986C11.0909 0.434976 10.7057 0.496459 10.3293 0.590116C9.49331 0.797981 8.77667 1.2063 8.18043 1.80564C8.12313 1.86325 8.05773 1.95118 7.99338 1.95353C7.93679 1.95556 7.87438 1.85887 7.81814 1.80261C7.45726 1.44246 7.05125 1.13656 6.58124 0.920443C6.31768 0.799329 6.03878 0.702471 5.75793 0.623974C5.51253 0.555416 5.25655 0.511956 5.00197 0.486184C4.7236 0.458053 4.44047 0.445419 4.16121 0.458895C3.93238 0.469676 3.70355 0.517852 3.48 0.569397C3.24253 0.624143 3.00506 0.688153 2.77834 0.773893C2.40582 0.914884 2.06099 1.10742 1.74313 1.34308C1.23821 1.71737 0.835373 2.1742 0.536197 2.71222C0.380174 2.99303 0.256591 3.28747 0.172144 3.59708C0.104975 3.84403 0.0430946 4.09047 0.0304012 4.34634C0.0210571 4.53315 -0.0112057 4.72147 0.00395679 4.90626C0.0259933 5.17527 0.0744753 5.44294 0.124544 5.70908C0.186424 6.03756 0.314591 6.34565 0.464797 6.6465C0.686402 7.09053 0.984344 7.48166 1.34628 7.82968C2.24469 8.69348 3.14275 9.55795 4.04257 10.4204C4.99016 11.3285 5.93987 12.2348 6.8887 13.1417C7.12635 13.3688 7.36964 13.5909 7.60112 13.8236C7.80545 14.0289 8.1903 14.0244 8.39551 13.8276C9.56013 12.7118 10.7272 11.5985 11.8929 10.4837C12.6859 9.72539 13.4804 8.96872 14.2683 8.20548C14.5418 7.94068 14.8081 7.66763 15.0579 7.38245C15.3488 7.05027 15.5553 6.66621 15.7115 6.26109C15.8481 5.90667 15.9491 5.54198 15.9708 5.16163C15.9814 4.97482 16.0055 4.7875 15.9988 4.6012C15.992 4.41237 15.9613 4.22337 15.9289 4.03639C15.8982 3.86037 15.8643 3.68316 15.8088 3.51336C15.7411 3.30617 15.6616 3.10083 15.5653 2.90442C15.3807 2.52862 15.1436 2.18363 14.8517 1.87369C14.4799 1.47885 14.0516 1.15172 13.5524 0.920443C13.2892 0.798487 13.0101 0.701797 12.7291 0.623132C12.4837 0.554405 12.2266 0.522063 11.9731 0.483152C11.8118 0.458727 11.6478 0.451147 11.4853 0.435986ZM11.5676 0.810783C11.6775 0.817521 11.8673 0.814994 12.0521 0.843294C12.3923 0.895513 12.7254 0.975862 13.0462 1.10371C13.4293 1.25633 13.7819 1.45442 14.0989 1.70827C14.782 2.25556 15.254 2.93121 15.4685 3.76587C15.5445 4.06166 15.5934 4.36015 15.599 4.66268C15.6087 5.18504 15.5181 5.69207 15.3212 6.18242C15.1731 6.55082 14.9804 6.89546 14.7128 7.19328C14.4711 7.46212 14.2031 7.70957 13.9409 7.96107C13.1435 8.72649 12.3433 9.48939 11.5442 10.2533C10.3991 11.3477 9.25408 12.4421 8.10885 13.5364C8.02705 13.6145 7.96746 13.6142 7.88584 13.536C7.37546 13.0475 6.86631 12.5578 6.35523 12.0702C4.83484 10.619 3.3194 9.16345 1.79037 7.7212C1.18797 7.15302 0.728889 6.51578 0.529497 5.71986C0.456687 5.42929 0.408734 5.13602 0.40274 4.83939C0.392339 4.31417 0.483837 3.80394 0.682347 3.31106C0.835021 2.93205 1.04411 2.58589 1.31155 2.27207C1.64387 1.88194 2.03983 1.56105 2.49715 1.31192C2.80479 1.14431 3.13234 1.01882 3.47471 0.933582C3.75573 0.863676 4.04309 0.825438 4.33434 0.814321C4.67635 0.801182 5.01643 0.821564 5.34998 0.888606C5.63788 0.946384 5.91766 1.03364 6.18792 1.15071C6.52782 1.29794 6.84763 1.47531 7.12706 1.71046C7.36206 1.90822 7.58543 2.11912 7.80439 2.33305C7.94208 2.46764 8.07589 2.45787 8.1866 2.33642C8.27105 2.24377 8.3696 2.16308 8.45863 2.07414C9.00991 1.52298 9.66485 1.13538 10.4365 0.93594C10.7805 0.847337 11.1332 0.810783 11.5676 0.810783Z" fill="#E4002B"/>
<path d="M11.4085 1.76002C11.4074 1.84273 11.4892 1.93386 11.577 1.95037C12.3809 2.10197 13.0433 2.47912 13.5663 3.08284C13.8153 3.37021 13.9958 3.69279 14.1351 4.03878C14.1742 4.13598 14.2678 4.18298 14.3651 4.15788C14.4745 4.12975 14.5395 4.04788 14.5074 3.94361C14.4658 3.80818 14.4124 3.67409 14.3465 3.54759C14.1213 3.11502 13.8234 2.73382 13.4419 2.41427C13.1052 2.13212 12.7279 1.91112 12.3116 1.75716C12.0976 1.67799 11.8716 1.62661 11.6491 1.57001C11.537 1.54137 11.4099 1.64834 11.4085 1.76002Z" fill="#E4002B"/>
<path d="M14.7478 5.23699C14.7342 5.18427 14.7263 5.11705 14.6995 5.05759C14.6635 4.97825 14.5671 4.9444 14.477 4.96579C14.4075 4.98246 14.3395 5.06703 14.3333 5.13878C14.3159 5.3448 14.2977 5.55081 14.2778 5.75665C14.2656 5.88231 14.3266 5.97041 14.4453 5.99164C14.5359 6.00781 14.6387 5.93757 14.66 5.82454C14.6954 5.63503 14.7177 5.44351 14.7478 5.23699Z" fill="#E4002B"/>
</svg>
